<svg xmlns="http://www.w3.org/2000/svg" viewBox="0 0 70.82 69.24"><defs><style>.cls-1{fill:#c00;}</style></defs><title>favicon</title><g id="Layer_2" data-name="Layer 2"><g id="logo"><ellipse cx="35.41" cy="34.62" rx="35.41" ry="34.62"/><g id="code_start"><path class="cls-1" d="M25.14,40.47a2.37,2.37,0,0,1,.43,1.34A2.06,2.06,0,0,1,25.21,43a2.1,2.1,0,0,1-1,.77,2.26,2.26,0,0,1-1.44,0,3.41,3.41,0,0,1-1.18-.61c-.36-.29-.71-.56-1.07-.82l-2.46-1.86-2.46-1.85c-.24-.19-.53-.39-.87-.61a6.31,6.31,0,0,1-1-.73,3.56,3.56,0,0,1-.74-.91,1.73,1.73,0,0,1-.22-1.1,2.27,2.27,0,0,1,.77-1.45c.41-.34.86-.69,1.34-1,.8-.62,1.61-1.25,2.4-1.89L19.72,29c.47-.38,1-.8,1.44-1.25a4,4,0,0,1,1.66-.93,2.08,2.08,0,0,1,1.32.07,2,2,0,0,1,.89.75,2.49,2.49,0,0,1,.38,1.14,2.31,2.31,0,0,1-.27,1.25,2.7,2.7,0,0,1-.52.7,6,6,0,0,1-.75.64l-.78.55-.62.43-2,1.53c-.66.5-1.31,1-1.95,1.54,1.12.76,2.21,1.55,3.27,2.38S23.93,39.49,25,40.3Z"/></g><g id="code_close"><path class="cls-1" d="M40.08,22.24a1.93,1.93,0,0,1,1-.78,2.29,2.29,0,0,1,1.13-.1,2,2,0,0,1,1,.51,1.65,1.65,0,0,1,.49,1.06,2,2,0,0,1-.13.79c-.11.3-.23.59-.36.89a8.91,8.91,0,0,1-.43.82,4.28,4.28,0,0,0-.28.52l-1,2c-.32.66-.63,1.32-1,2-1.11,2.36-2.23,4.71-3.33,7S35,41.63,33.86,44a1.46,1.46,0,0,1-.81.73,2,2,0,0,1-1.14.1,2.29,2.29,0,0,1-1-.5,1.55,1.55,0,0,1-.52-1.08,2.4,2.4,0,0,1,.3-1.41c.24-.42.48-.88.71-1.38.32-.67.63-1.34,1-2l.95-2,.39-.8c.18-.37.37-.77.59-1.21L34.88,33c.22-.47.43-.9.62-1.28s.4-.84.63-1.36c.65-1.34,1.29-2.67,1.93-4l1.89-4Z"/><path class="cls-1" d="M44.3,39.57c1.07-.78,2.12-1.58,3.16-2.39s2.08-1.59,3.15-2.35c-.64-.53-1.28-1-1.92-1.54l-2-1.49c-.17-.12-.38-.27-.63-.43l-.77-.55c-.26-.21-.51-.41-.74-.63a2.25,2.25,0,0,1-.54-.68,2.3,2.3,0,0,1-.28-1.24,2.49,2.49,0,0,1,.33-1.16,2,2,0,0,1,.88-.79,2,2,0,0,1,1.32-.09,2.88,2.88,0,0,1,1.21.63c.38.32.74.61,1.07.87L50.22,29c.55.43,1.09.87,1.64,1.32l.77.61.42.34c.13.11.3.23.49.37l.85.68c.45.33.86.66,1.23,1a2.35,2.35,0,0,1,.73,1.34,1.61,1.61,0,0,1-.18,1.12,3.45,3.45,0,0,1-.73.93,5.55,5.55,0,0,1-1,.73,8.46,8.46,0,0,0-.89.61c-.83.62-1.65,1.23-2.46,1.85s-1.63,1.24-2.46,1.85c-.36.27-.71.55-1.07.84a3.15,3.15,0,0,1-1.18.63,2.48,2.48,0,0,1-1.53,0,1.85,1.85,0,0,1-1-.79,2.16,2.16,0,0,1-.29-1.26,3,3,0,0,1,.5-1.45Z"/></g></g></g></svg>