<svg xmlns="http://www.w3.org/2000/svg" viewBox="0 0 222.9 31.4">
  <defs>
    <style>
    
    </style>
  </defs>
  <g id="logo" data-name="Layer 2">
    <g id="Layer_1-2" data-name="Layer 1">
      <path class="code_color" d="M0 14.6v-1L17 3.2l1.4 2.3L4 13.9l14.3 8.3-1.3 2.2z"/>
      <path class="text-color" id="crazycode" d="M38.5 24.4a10.7 10.7 0 01-2.7 1 13.5 13.5 0 01-3 .4A9.3 9.3 0 0129 25a7.8 7.8 0 01-3-2.2 10.2 10.2 0 01-1.8-3.6 17 17 0 01-.8-5.2 15.5 15.5 0 01.8-5 11 11 0 012-3.6 8.3 8.3 0 013-2.2 8.7 8.7 0 013.5-.8 10.8 10.8 0 012.8.4A10 10 0 0138.3 4l-.9 2.4a9 9 0 00-4.5-1.4 5.5 5.5 0 00-2.6.7 5.7 5.7 0 00-2 1.8 9 9 0 00-1.3 2.8 14.2 14.2 0 00-.5 3.7 14.8 14.8 0 00.5 4 8.4 8.4 0 001.4 2.8 5.4 5.4 0 002 1.7 6.3 6.3 0 002.7.5 9.7 9.7 0 002.2-.2 9.4 9.4 0 002.3-1zM43.7 25.3V9.5a22.7 22.7 0 017.5-1.3l2.2.1a15.8 15.8 0 012.3.4l-.6 2.6a12.9 12.9 0 00-2-.4 19 19 0 00-1.9 0 17 17 0 00-4.5.5v13.9zM66.8 8.2a9.3 9.3 0 013.1.5A5.4 5.4 0 0172 10a4.7 4.7 0 011.1 2 10.1 10.1 0 01.3 2.6V25l-2.7.4a23.8 23.8 0 01-3.5.3 14.7 14.7 0 01-2.7-.2 6.7 6.7 0 01-2.3-.9 4.5 4.5 0 01-1.6-1.6 5.2 5.2 0 01-.6-2.7 4.4 4.4 0 01.6-2.4 5 5 0 011.7-1.6 7 7 0 012.2-.9 12.5 12.5 0 012.6-.3 15.3 15.3 0 013.4.4v-.8a6.3 6.3 0 00-.1-1.4 3.3 3.3 0 00-.7-1.3 3.2 3.2 0 00-1.2-1 5 5 0 00-2-.3 14.3 14.3 0 00-2.7.3 11.5 11.5 0 00-1.7.4l-.4-2.5a8 8 0 012-.5 19.5 19.5 0 013-.2zm.3 15h2a11 11 0 001.4-.3V18a8 8 0 00-1.4-.3 13.3 13.3 0 00-1.7-.1 9.7 9.7 0 00-1.6.1 4.3 4.3 0 00-1.4.5 3 3 0 00-1 .8 2 2 0 00-.4 1.3 2.4 2.4 0 001.1 2.3 6 6 0 003 .6zM91 10.8L89.2 13l-2.4 3c-.9 1-1.7 2.3-2.5 3.5l-2.2 3.4h9.1v2.5H78.5v-2a34.4 34.4 0 012-3.1l2.3-3.4 2.4-3.2 2-2.5H79V8.6h12zM95.7 28.4a3.1 3.1 0 001 .3 6.4 6.4 0 001 .1 4.4 4.4 0 002.8-.8 7 7 0 001.8-2.5q-2-3.8-3.8-8.2a73.8 73.8 0 01-2.9-8.7H99a71.2 71.2 0 003.2 10l1.5 3.5a139 139 0 002-6.5l.9-3.4.9-3.6h3q-1 4.7-2.5 9t-3 8.2a15.1 15.1 0 01-1.3 2.5A7.9 7.9 0 01102 30a5.4 5.4 0 01-1.9 1 7.8 7.8 0 01-2.3.3 7 7 0 01-1.5-.2 5.3 5.3 0 01-1.1-.3zM128.4 24.4a10.7 10.7 0 01-2.6 1 13.5 13.5 0 01-3 .4 9.3 9.3 0 01-3.7-.7 7.8 7.8 0 01-2.9-2.2 10.2 10.2 0 01-1.9-3.6 17 17 0 01-.7-5.2 15.5 15.5 0 01.7-5 11 11 0 012-3.6 8.3 8.3 0 013-2.2 8.7 8.7 0 013.6-.8 10.8 10.8 0 012.7.4 10 10 0 012.8 1.2l-.9 2.4a9 9 0 00-4.5-1.4 5.5 5.5 0 00-2.6.7 5.7 5.7 0 00-2 1.8 9 9 0 00-1.4 2.8 14.2 14.2 0 00-.5 3.7 14.8 14.8 0 00.5 4 8.4 8.4 0 001.4 2.8 5.4 5.4 0 002 1.7 6.3 6.3 0 002.7.5 9.7 9.7 0 002.2-.2 9.4 9.4 0 002.3-1zM146.4 17a10.9 10.9 0 01-.5 3.6 8.1 8.1 0 01-1.6 2.7 7 7 0 01-2.4 1.8 7.3 7.3 0 01-3 .6 7.1 7.1 0 01-3-.6 7 7 0 01-2.5-1.8 8.3 8.3 0 01-1.5-2.7 10.6 10.6 0 01-.6-3.6 10.8 10.8 0 01.6-3.6 8 8 0 011.5-2.8 7.2 7.2 0 015.4-2.3 7.3 7.3 0 013.1.6 7 7 0 012.4 1.7 8 8 0 011.6 2.8 11 11 0 01.5 3.6zm-3 0a7.4 7.4 0 00-1.2-4.5 4 4 0 00-3.4-1.6 3.9 3.9 0 00-3.2 1.6 7.4 7.4 0 00-1.2 4.5 7.3 7.3 0 001.2 4.4 3.8 3.8 0 003.3 1.6 4 4 0 003.3-1.6 7.3 7.3 0 001.2-4.4zM160.3.9l3-.6v24.5a23.3 23.3 0 01-2.4.6 19.3 19.3 0 01-3.6.3 8.5 8.5 0 01-3.2-.6 7 7 0 01-2.6-1.8 8 8 0 01-1.6-2.7 10.9 10.9 0 01-.6-3.7 12.3 12.3 0 01.5-3.5 8 8 0 011.4-2.8 6.5 6.5 0 012.3-1.8 6.7 6.7 0 013-.6 7.8 7.8 0 012.3.3 5.7 5.7 0 011.5.7zm0 11.2a5.1 5.1 0 00-1.4-.9 5.2 5.2 0 00-2-.4 4.1 4.1 0 00-2 .5 3.9 3.9 0 00-1.4 1.3 5.7 5.7 0 00-.8 2 11 11 0 00-.3 2.3 6.7 6.7 0 001.4 4.6 4.5 4.5 0 003.5 1.5 12.8 12.8 0 002-.1 8.3 8.3 0 001-.2zM175.2 8.2a6.5 6.5 0 015.2 2.1q1.9 2.1 1.9 6.4v1h-12a5.5 5.5 0 001.7 4 6.3 6.3 0 004.3 1.3 12.4 12.4 0 002.7-.2 8 8 0 001.7-.6l.4 2.6a8.7 8.7 0 01-2 .6 13.8 13.8 0 01-3.2.3 10 10 0 01-3.8-.7 7.4 7.4 0 01-2.7-1.8 7.3 7.3 0 01-1.6-2.7 10.8 10.8 0 01-.5-3.5 10.2 10.2 0 01.7-3.9 8 8 0 011.8-2.7 7.5 7.5 0 012.5-1.7 8 8 0 013-.5zm4 7.1a4.9 4.9 0 00-1-3.3 3.8 3.8 0 00-3-1.2 4.3 4.3 0 00-2 .4 4.7 4.7 0 00-1.4 1 5 5 0 00-1 1.4 6 6 0 00-.4 1.7z"/>
      <path class="code_color" d="M197.6 0l2.3 1-13.2 29.7-2.2-1zM206 24.4l-1.4-2.1L219 14l-14.3-8.5 1.4-2.3 17 10.4v1z"/>
    </g>
  </g>
</svg>